name Walk6.mot
datacolumns 19
datarows 30
range 2.13500000 2.28000000
endheader

                time	   L_ground_force_vx	   L_ground_force_vy	   L_ground_force_vz	   L_ground_force_px	   L_ground_force_py	   L_ground_force_pz	   R_ground_force_vx	   R_ground_force_vy	   R_ground_force_vz	   R_ground_force_px	   R_ground_force_py	   R_ground_force_pz	   L_ground_torque_x	   L_ground_torque_y	   L_ground_torque_z	   R_ground_torque_x	   R_ground_torque_y	   R_ground_torque_z	
          2.13500000	          0.00845480	          0.01241926	         -0.00100099	         -0.00016061	          0.00000000	         -0.00002250	        -22.21173053	        674.79476236	        -41.14303222	          0.15698260	          0.00000000	          0.10969293	          0.00000000	          0.00011729	          0.00000000	          0.00000000	          8.78410257	          0.00000000	
          2.14000000	          0.00362334	         -0.00010407	         -0.00092946	         -0.00011002	          0.00000000	         -0.00001515	        -20.35220684	        669.43868819	        -41.07044006	          0.15789108	          0.00000000	          0.11016279	          0.00000000	          0.00006791	          0.00000000	          0.00000000	          8.62230610	          0.00000000	
          2.14500000	          0.00023845	         -0.00812681	         -0.00081008	         -0.00006887	          0.00000000	         -0.00000924	        -18.52796609	        664.22689788	        -41.00066475	          0.15875408	          0.00000000	          0.11061048	          0.00000000	          0.00003087	          0.00000000	          0.00000000	          8.45654768	          0.00000000	
          2.15000000	         -0.00195107	         -0.01262890	         -0.00066946	         -0.00003703	          0.00000000	         -0.00000472	        -16.73092439	        659.21202667	        -40.91765987	          0.15956316	          0.00000000	          0.11102965	          0.00000000	          0.00000468	          0.00000000	          0.00000000	          8.28490644	          0.00000000	
          2.15500000	         -0.00320086	         -0.01451721	         -0.00052634	         -0.00001369	          0.00000000	         -0.00000145	        -14.95365973	        654.44833931	        -40.80793775	          0.16031105	          0.00000000	          0.11141522	          0.00000000	         -0.00001249	          0.00000000	          0.00000000	          8.10593601	          0.00000000	
          2.16000000	         -0.00374918	         -0.01458002	         -0.00039293	          0.00000236	          0.00000000	          0.00000076	        -13.19045504	        649.98805241	        -40.66091347	          0.16099255	          0.00000000	          0.11176361	          0.00000000	         -0.00002251	          0.00000000	          0.00000000	          7.91852891	          0.00000000	
          2.16500000	         -0.00380429	         -0.01346719	         -0.00027630	          0.00001247	          0.00000000	          0.00000212	        -11.43703942	        645.87619223	        -40.46874379	          0.16160360	          0.00000000	          0.11207165	          0.00000000	         -0.00002716	          0.00000000	          0.00000000	          7.72169193	          0.00000000	
          2.17000000	         -0.00353876	         -0.01168846	         -0.00017965	          0.00001796	          0.00000000	          0.00000283	         -9.68955943	        642.14854815	        -40.22731587	          0.16214215	          0.00000000	          0.11233711	          0.00000000	         -0.00002799	          0.00000000	          0.00000000	          7.51471898	          0.00000000	
          2.17500000	         -0.00308860	         -0.00962338	         -0.00010347	          0.00002007	          0.00000000	          0.00000305	         -7.94444918	        638.83456695	        -39.93698426	          0.16260893	          0.00000000	          0.11255945	          0.00000000	         -0.00002631	          0.00000000	          0.00000000	          7.29734453	          0.00000000	
          2.18000000	         -0.00255566	         -0.00753799	         -0.00004643	          0.00001983	          0.00000000	          0.00000296	         -6.19900224	        635.95997833	        -39.60264119	          0.16300782	          0.00000000	          0.11274006	          0.00000000	         -0.00002315	          0.00000000	          0.00000000	          7.06994755	          0.00000000	
          2.18500000	         -0.00201177	         -0.00560451	         -0.00000618	          0.00001811	          0.00000000	          0.00000266	         -4.45199151	        633.54499823	        -39.23259214	          0.16334749	          0.00000000	          0.11288127	          0.00000000	         -0.00001929	          0.00000000	          0.00000000	          6.83358693	          0.00000000	
          2.19000000	         -0.00150388	         -0.00392135	          0.00002012	          0.00001557	          0.00000000	          0.00000226	         -2.70356886	        631.60384214	        -38.83702014	          0.16364087	          0.00000000	          0.11298626	          0.00000000	         -0.00001530	          0.00000000	          0.00000000	          6.59009011	          0.00000000	
          2.19500000	         -0.00105924	         -0.00253185	          0.00003539	          0.00001271	          0.00000000	          0.00000183	         -0.95625674	        630.14677277	        -38.42666702	          0.16390441	          0.00000000	          0.11306086	          0.00000000	         -0.00001152	          0.00000000	          0.00000000	          6.34200016	          0.00000000	
          2.20000000	         -0.00069032	         -0.00144055	          0.00004239	          0.00000988	          0.00000000	          0.00000140	          0.78504492	        629.18244586	        -38.01153302	          0.16415525	          0.00000000	          0.11311318	          0.00000000	         -0.00000819	          0.00000000	          0.00000000	          6.09228286	          0.00000000	
          2.20500000	         -0.00039915	         -0.00062679	          0.00004352	          0.00000728	          0.00000000	          0.00000102	          2.51407528	        628.72095488	        -37.60024163	          0.16440957	          0.00000000	          0.11315181	          0.00000000	         -0.00000541	          0.00000000	          0.00000000	          5.84369008	          0.00000000	
          2.21000000	         -0.00018086	         -0.00005537	          0.00004081	          0.00000503	          0.00000000	          0.00000069	          4.22555632	        628.77528690	        -37.19976913	          0.16468258	          0.00000000	          0.11318439	          0.00000000	         -0.00000319	          0.00000000	          0.00000000	          5.59837759	          0.00000000	
          2.21500000	         -0.00002657	          0.00031545	          0.00003584	          0.00000320	          0.00000000	          0.00000043	          5.91656383	        629.36080451	        -36.81606823	          0.16498693	          0.00000000	          0.11321712	          0.00000000	         -0.00000152	          0.00000000	          0.00000000	          5.35796969	          0.00000000	
          2.22000000	          0.00007447	          0.00052830	          0.00002982	          0.00000176	          0.00000000	          0.00000023	          7.58560368	        630.49370386	        -36.45578808	          0.16533197	          0.00000000	          0.11325437	          0.00000000	         -0.00000033	          0.00000000	          0.00000000	          5.12357277	          0.00000000	
          2.22500000	          0.00013338	          0.00062302	          0.00002360	          0.00000071	          0.00000000	          0.00000008	          9.23165831	        632.18971258	        -36.12724317	          0.16572597	          0.00000000	          0.11329918	          0.00000000	          0.00000046	          0.00000000	          0.00000000	          4.89613697	          0.00000000	
          2.23000000	          0.00016061	          0.00063448	          0.00001775	         -0.00000003	          0.00000000	         -0.00000002	         10.85303473	        634.45858633	        -35.84006938	          0.16617562	          0.00000000	          0.11335422	          0.00000000	          0.00000093	          0.00000000	          0.00000000	          4.67673756	          0.00000000	
          2.23500000	          0.00016537	          0.00059166	          0.00001259	         -0.00000049	          0.00000000	         -0.00000009	         12.44683828	        637.30164974	        -35.60352309	          0.16668663	          0.00000000	          0.11342263	          0.00000000	          0.00000116	          0.00000000	          0.00000000	          4.46646677	          0.00000000	
          2.24000000	          0.00015534	          0.00051740	          0.00000828	         -0.00000076	          0.00000000	         -0.00000012	         14.00903812	        640.71041543	        -35.42500102	          0.16726367	          0.00000000	          0.11350636	          0.00000000	          0.00000121	          0.00000000	          0.00000000	          4.26622037	          0.00000000	
          2.24500000	          0.00013662	          0.00042886	          0.00000487	         -0.00000086	          0.00000000	         -0.00000013	         15.53538929	        644.66549734	        -35.30938756	          0.16790838	          0.00000000	          0.11360521	          0.00000000	          0.00000115	          0.00000000	          0.00000000	          4.07661155	          0.00000000	
          2.25000000	          0.00011382	          0.00033816	          0.00000229	         -0.00000086	          0.00000000	         -0.00000013	         17.02218673	        649.13810043	        -35.25861824	          0.16861985	          0.00000000	          0.11371714	          0.00000000	          0.00000102	          0.00000000	          0.00000000	          3.89789239	          0.00000000	
          2.25500000	          0.00009019	          0.00025326	          0.00000046	         -0.00000080	          0.00000000	         -0.00000012	         18.46693297	        654.09373027	        -35.27152658	          0.16939556	          0.00000000	          0.11383930	          0.00000000	          0.00000086	          0.00000000	          0.00000000	          3.73000602	          0.00000000	
          2.26000000	          0.00006790	          0.00017878	         -0.00000075	         -0.00000069	          0.00000000	         -0.00000010	         19.86892261	        659.49633327	        -35.34406489	          0.17023186	          0.00000000	          0.11396941	          0.00000000	          0.00000069	          0.00000000	          0.00000000	          3.57242878	          0.00000000	
          2.26500000	          0.00004824	          0.00011688	         -0.00000147	         -0.00000057	          0.00000000	         -0.00000008	         21.22963083	        665.30781541	        -35.47037153	          0.17112520	          0.00000000	          0.11410498	          0.00000000	          0.00000052	          0.00000000	          0.00000000	          3.42461669	          0.00000000	
          2.27000000	          0.00003182	          0.00006794	         -0.00000181	         -0.00000044	          0.00000000	         -0.00000006	         22.55096359	        671.48886076	        -35.64318672	          0.17207254	          0.00000000	          0.11424355	          0.00000000	          0.00000037	          0.00000000	          0.00000000	          3.28556159	          0.00000000	
          2.27500000	          0.00001877	          0.00003118	         -0.00000189	         -0.00000033	          0.00000000	         -0.00000005	         23.83389276	        678.00105355	        -35.85420290	          0.17307147	          0.00000000	          0.11438343	          0.00000000	          0.00000025	          0.00000000	          0.00000000	          3.15306966	          0.00000000	
          2.28000000	          0.00000892	          0.00000514	         -0.00000179	         -0.00000023	          0.00000000	         -0.00000003	         25.07907926	        684.80579119	        -36.09562718	          0.17412026	          0.00000000	          0.11452307	          0.00000000	          0.00000015	          0.00000000	          0.00000000	          3.02453090	          0.00000000	
